<?xml version="1.0" encoding="utf-8"?>
<!-- Generator: Adobe Illustrator 18.1.1, SVG Export Plug-In . SVG Version: 6.00 Build 0)  -->
<svg version="1.2" baseProfile="tiny" id="Layer_1" xmlns="http://www.w3.org/2000/svg" xmlns:xlink="http://www.w3.org/1999/xlink"
	 x="0px" y="0px" viewBox="0 0 2000 2000" xml:space="preserve">
<path fill="#3A3A3A" d="M587.7,988.2c-21.7,24.4-33.6,50.4-45,75.6c-18.1,40.1-48.1,48.5-88.7,48.3c-38.5-0.1-62.7-12.6-77.9-48.3
	c-10.9-25.6-26.9-49-40.9-73.8c-19.7,8.7-14,23.6-14.1,35.1c-0.5,95-0.1,190.1-0.4,285.1c-0.2,49.9-4.1,54.2-53.7,55.7
	c-38.3,1.1-76.7,1.3-115-0.1c-42.7-1.5-52.1-11-52.6-55c-1-85-0.3-170-0.3-255.1c0-113.4-0.1-226.7,0.1-340.1
	c0-15-0.1-30.1,1.8-44.9c2.7-20.5,13.8-33,36.5-32.9c53.3,0.3,106.7,0.3,160,0c25-0.2,39.8,13.8,51,34
	c23.4,42.2,46.9,84.4,70.4,126.5c5.7,10.2,10.6,20.8,17.2,30.4c18.9,27.5,34.4,27.8,51.8-1.6c24.5-41.5,46.8-84.4,70-126.7
	c6.4-11.7,12.7-23.4,19.5-34.8c11.1-18.8,27.5-28,49.6-27.9c50,0.2,100-1,150,0.2c37.6,0.9,42.7,6.2,42.9,44.9
	c0.6,115,0.3,230.1,0.3,345.1c0,93.4,0.2,186.7-0.1,280.1c-0.1,50.9-5.7,56.8-57.3,58.1c-36.7,0.9-73.4,0.9-110,0
	c-51.7-1.1-55.5-5.2-55.7-59c-0.4-88.4,0.1-176.7-0.4-265.1C596.5,1025.9,601,1008.9,587.7,988.2z"/>
<path fill="#3A3A3A" d="M1692.4,1366c-68.3-0.5-136.6,2.4-204.7-4.8c-36.9-3.9-72.3-12.2-104.5-30.5c-51.8-29.4-80.1-76-82.7-134.4
	c-5.8-129.9-6.3-260.1,0.1-390c3.5-70.7,41-122,108.5-147.7c29.5-11.3,60.1-19.6,92.1-19.8c93.4-0.6,186.7-1.5,280.1-1.1
	c46.7,0.2,50.1,4.4,50.9,52.5c0.5,31.7,0.9,63.4-0.2,95c-1.2,37.3-6.9,43.3-44.4,43.9c-61.7,0.9-123.4,0-185.1,0.4
	c-63.8,0.4-79.7,16.2-80.3,79.9c-0.6,65-0.8,130.1,0.1,195.1c0.7,58.4,15.8,73.2,75.5,73.2c85.1,0,71.6,8.4,72.9-70.4
	c0.4-26.7-1-53.4,0.6-80c2-33.9,13-46.3,45.3-47.4c46.6-1.6,93.4-1.7,140,0.1c32.9,1.2,43.7,13.3,44,47.5
	c0.8,96.7,0.8,193.4,0,290.1c-0.3,37.1-9.4,46.7-48.1,47.9C1799.2,1367.3,1745.8,1366,1692.4,1366z"/>
<path fill="#3A3A3A" d="M1134.2,547.7c23.3,0,46.7-1.1,69.9,0.3c30.2,1.8,38.7,11.8,34.5,41.3c-10.5,74-22.2,147.8-33,221.7
	c-18.6,126.5-37,253.1-55.2,379.7c-10.6,74-20.4,148.1-31.2,222c-5.1,34.9-13.4,42.5-48.7,43.3c-43.3,1-86.7,1.5-129.9-0.3
	c-34.7-1.4-44.6-13.6-39.6-48.2c17.4-121.6,36.1-243.1,53.9-364.7c18.5-126.6,36.7-253.2,54.9-379.8c3.8-26.3,7.3-52.6,10.9-79
	c3.4-25.5,16.9-38.1,43.6-36.8c23.3,1.1,46.6,0.2,70,0.2C1134.2,547.6,1134.2,547.6,1134.2,547.7z"/>
</svg>
